# xmcd
#
# Track frame offsets:
#       150
#       16417
#       30245
#       40812
#       56900
#       70487
#       81777
#       97060
#       107510
#       123307
#       135925
#       148512
#       163312
#       174527
#       194940
#       207312
#       220785
#       231077
#       245687
#       262447
#       278717
#       288707
#       301022
#       312622
#
# Disc length: 4388 seconds
#
# Revision: 1
# Processed by: cddbd v1.5.1PL0 Copyright (c) Steve Scherf et al.
# Submitted via: MusiCat 1.1
#
DISCID=74112218
DTITLE=Alberto Calçada - Valsas-Dose dupla
DYEAR=1900
DGENRE=
TTITLE0=Cascata de beijos
TTITLE1=Rapaziada do bom retiro
TTITLE2=Último beijo
TTITLE3=São judas tadeu
TTITLE4=Luar de são paulo
TTITLE5=Morrer sem ter amado
TTITLE6=Saudade de minha terra
TTITLE7=Nossa senhora do amparo
TTITLE8=Dirce
TTITLE9=E o destino desfolhou
TTITLE10=Vera
TTITLE11=Cascata de lágrimas
TTITLE12=Folhas ao vento
TTITLE13=Flor do mal
TTITLE14=Saudade de matão
TTITLE15=Pic-nic trágico
TTITLE16=Santa terezinha
TTITLE17=Não me saes do pensamento
TTITLE18=Retalhos d'alma
TTITLE19=Rosa desfolhada
TTITLE20=Saudade de uberaba
TTITLE21=Vinte anos depois
TTITLE22=Saudades de ouro preto
TTITLE23=Saudades de tatuí
EXTD=\n\n
EXTT0=
EXTT1=
EXTT2=
EXTT3=
EXTT4=
EXTT5=
EXTT6=
EXTT7=
EXTT8=
EXTT9=
EXTT10=
EXTT11=
EXTT12=
EXTT13=
EXTT14=
EXTT15=
EXTT16=
EXTT17=
EXTT18=
EXTT19=
EXTT20=
EXTT21=
EXTT22=
EXTT23=
PLAYORDER=
